<?xml version="1.0" encoding="UTF-8"?>
<svg version="1.1" xmlns="http://www.w3.org/2000/svg" width="408" height="408">
<path d="M0 0 C0 0.66 0 1.32 0 2 C0.721875 2.2475 1.44375 2.495 2.1875 2.75 C5.27606582 4.12269592 7.51011418 5.72353296 10 8 C10 8.66 10 9.32 10 10 C10.57234375 10.2475 11.1446875 10.495 11.734375 10.75 C19.00755662 14.76278986 24.41663404 22.54541184 29.37109375 29.03125 C30.85665802 31.09668073 30.85665802 31.09668073 33 32 C33.33 32.99 33.66 33.98 34 35 C34.474375 35.45375 34.94875 35.9075 35.4375 36.375 C37.37092514 38.38576214 38.0831564 40.39052205 39 43 C39.66 43 40.32 43 41 43 C48.86826086 52.70478857 55.08546197 63.99392339 61.56396484 74.64160156 C62.7606198 76.60686625 63.96652434 78.56592728 65.17578125 80.5234375 C71.0773922 90.28530396 75.19809799 100.7507313 79.25 111.375 C79.4962915 112.01663086 79.74258301 112.65826172 79.99633789 113.31933594 C84.96738305 126.62353555 87.14500039 141.12326965 81.9609375 154.7265625 C77.53316348 164.18200251 71.64861932 170.72611493 62 175 C43.10062879 180.70628007 27.79013681 176.3505198 10.40625 167.7109375 C-7.09619858 159.11786786 -25.03076142 158.28461385 -44 162 C-45.14210938 162.21785156 -46.28421875 162.43570313 -47.4609375 162.66015625 C-57.44200448 164.67619958 -67.13886478 167.26838351 -76.5 171.3125 C-82.13619537 173.73553726 -87.87438929 175.73915528 -93.6875 177.6875 C-94.56664062 177.98503174 -95.44578125 178.28256348 -96.3515625 178.58911133 C-106.34279256 181.89729775 -115.25266763 183.38234127 -125.8125 183.4375 C-127.46088867 183.48680664 -127.46088867 183.48680664 -129.14257812 183.53710938 C-140.0691717 183.60793585 -149.57403208 180.13976875 -157.96484375 173.05859375 C-166.59632949 164.3277051 -169.91200714 153.56353395 -170.3125 141.4375 C-169.03026179 112.26658076 -155.70983415 83.43799043 -139 60 C-138.1753837 58.82579992 -137.35118572 57.65130599 -136.52734375 56.4765625 C-125.30465522 40.54874908 -125.30465522 40.54874908 -122 37 C-121.34 37 -120.68 37 -120 37 C-119.75121094 36.42886475 -119.50242188 35.85772949 -119.24609375 35.26928711 C-108.50665602 15.71147486 -81.62482026 -1.99153855 -60.734375 -9.11328125 C-58.16259819 -9.83874236 -55.61788597 -10.4694067 -53 -11 C-52.236875 -11.18046875 -51.47375 -11.3609375 -50.6875 -11.546875 C-32.04989433 -14.689262 -15.85646431 -9.38629784 0 0 Z " fill="#16A1A0" transform="translate(249,191)"/>
<path d="M0 0 C6.04331124 3.63271399 10.94182587 7.54061604 15.10546875 13.265625 C15.10546875 13.925625 15.10546875 14.585625 15.10546875 15.265625 C16.59046875 15.760625 16.59046875 15.760625 18.10546875 16.265625 C33.3971174 36.74088336 37.35588975 64.9528455 33.80078125 89.61328125 C32.81673727 94.7822763 31.20833039 99.45465002 29.10546875 104.265625 C28.80769531 104.98234375 28.50992188 105.6990625 28.203125 106.4375 C24.03913013 115.65905088 17.25536579 122.01430628 8.10546875 126.265625 C-0.9869219 128.68928325 -11.30813734 128.12451845 -19.89453125 124.265625 C-23.03221936 122.43571358 -25.96853711 120.41374749 -28.89453125 118.265625 C-30.37953125 117.275625 -30.37953125 117.275625 -31.89453125 116.265625 C-31.89453125 115.605625 -31.89453125 114.945625 -31.89453125 114.265625 C-32.55453125 114.265625 -33.21453125 114.265625 -33.89453125 114.265625 C-33.89453125 113.605625 -33.89453125 112.945625 -33.89453125 112.265625 C-34.55453125 112.265625 -35.21453125 112.265625 -35.89453125 112.265625 C-52.88969827 93.15754532 -56.87067102 67.85821431 -55.89453125 43.265625 C-55.53683143 39.15434101 -54.89078196 35.26790385 -53.89453125 31.265625 C-53.66121094 30.29753906 -53.42789063 29.32945313 -53.1875 28.33203125 C-50.79867494 19.94387384 -46.48297726 12.90383435 -40.89453125 6.265625 C-39.90453125 5.935625 -38.91453125 5.605625 -37.89453125 5.265625 C-37.89453125 4.605625 -37.89453125 3.945625 -37.89453125 3.265625 C-36.45882859 2.44995326 -35.02089691 1.63820407 -33.58203125 0.828125 C-32.78152344 0.37566406 -31.98101562 -0.07679687 -31.15625 -0.54296875 C-22.64997733 -5.0238205 -8.5434963 -4.17616687 0 0 Z " fill="#17A09F" transform="translate(158.89453125,26.734375)"/>
<path d="M0 0 C1.010625 0.53625 2.02125 1.0725 3.0625 1.625 C4.0215625 2.305625 4.0215625 2.305625 5 3 C5 3.66 5 4.32 5 5 C5.58652344 5.22300781 6.17304688 5.44601563 6.77734375 5.67578125 C9.66955556 7.3989092 10.80142585 9.33117168 12.5625 12.1875 C13.14128906 13.10917969 13.72007812 14.03085937 14.31640625 14.98046875 C25.09436807 34.31078079 24.26257862 59.2632813 18.37646484 80.03320312 C14.82363434 91.89627864 9.10821465 102.55867799 1 112 C0.34 112 -0.32 112 -1 112 C-1 112.66 -1 113.32 -1 114 C-1.66 114 -2.32 114 -3 114 C-3.495 115.485 -3.495 115.485 -4 117 C-12.68149153 125.13095792 -22.07617192 127.32388771 -33.70703125 127.21875 C-41.95624532 126.6707595 -48.24029821 123.36394371 -54.375 117.875 C-56 116 -56 116 -56 114 C-56.66 114 -57.32 114 -58 114 C-61.81235336 106.81945095 -65.01190916 99.89515212 -67 92 C-67.17128418 91.43635742 -67.34256836 90.87271484 -67.51904297 90.29199219 C-72.51349622 66.49101395 -66.80696212 40.985361 -53.984375 20.83203125 C-46.28244472 9.8401032 -37.22721774 0.7370578 -24 -3 C-15.07413747 -4.39435916 -7.819919 -4.83044672 0 0 Z " fill="#16A09F" transform="translate(287,27)"/>
<path d="M0 0 C3.93084992 2.55914708 7.82492134 5.25029002 11.25 8.46484375 C11.25 9.12484375 11.25 9.78484375 11.25 10.46484375 C11.91 10.46484375 12.57 10.46484375 13.25 10.46484375 C17.25 14.93543199 17.25 14.93543199 17.25 17.46484375 C17.91 17.46484375 18.57 17.46484375 19.25 17.46484375 C25.48450398 24.41351691 28.87235356 33.89462886 32.25 42.46484375 C32.61609375 43.38007813 32.9821875 44.2953125 33.359375 45.23828125 C35.37809726 51.27540348 35.54718196 57.2790891 35.625 63.58984375 C35.63909912 64.42547852 35.65319824 65.26111328 35.66772461 66.12207031 C35.60282872 74.45174507 33.08865916 81.13649444 29.25 88.46484375 C28.755 89.94984375 28.755 89.94984375 28.25 91.46484375 C22.50881321 97.63554576 14.88922078 102.93921731 6.31640625 103.73828125 C-6.81533615 104.11891146 -17.41417188 99.54225274 -27.75 91.46484375 C-27.75 90.80484375 -27.75 90.14484375 -27.75 89.46484375 C-28.36875 89.21734375 -28.9875 88.96984375 -29.625 88.71484375 C-32.10068687 87.25855736 -32.70125002 86.08671869 -33.75 83.46484375 C-34.41 83.46484375 -35.07 83.46484375 -35.75 83.46484375 C-37.44749578 81.31244352 -38.98673601 79.18062192 -40.5 76.90234375 C-41.16999023 75.89373291 -41.16999023 75.89373291 -41.85351562 74.86474609 C-52.59413406 58.15927624 -56.91258785 38.01481043 -53.36328125 18.31884766 C-51.0049342 9.60947199 -45.12843296 2.48893129 -37.6875 -2.41015625 C-25.1243583 -9.53086824 -12.04953622 -7.07910253 0 0 Z " fill="#17A09F" transform="translate(76.75,135.53515625)"/>
<path d="M0 0 C10.66390842 6.76441952 16.99262474 16.11348879 20.09375 28.328125 C23.17694854 49.67608979 14.76245328 71.37476486 2.21875 88.328125 C-0.0234375 91.265625 -0.0234375 91.265625 -1.90625 93.328125 C-2.56625 93.328125 -3.22625 93.328125 -3.90625 93.328125 C-3.90625 93.988125 -3.90625 94.648125 -3.90625 95.328125 C-10.70680357 100.96784439 -18.04366949 106.73538366 -26.90625 108.328125 C-27.75445312 108.48925781 -28.60265625 108.65039062 -29.4765625 108.81640625 C-38.21663501 110.04898058 -46.89444528 108.75429242 -54.28125 103.703125 C-62.69022202 96.60260298 -67.18120158 86.03985427 -68.90625 75.328125 C-70.40766157 54.07737657 -61.74136561 32.41451682 -47.90625 16.328125 C-47.24625 16.328125 -46.58625 16.328125 -45.90625 16.328125 C-45.90625 15.668125 -45.90625 15.008125 -45.90625 14.328125 C-45.24625 14.328125 -44.58625 14.328125 -43.90625 14.328125 C-43.24625 13.008125 -42.58625 11.688125 -41.90625 10.328125 C-41.24625 10.328125 -40.58625 10.328125 -39.90625 10.328125 C-39.90625 9.668125 -39.90625 9.008125 -39.90625 8.328125 C-29.02825566 -1.2520609 -13.69527533 -7.04611991 0 0 Z " fill="#16A09F" transform="translate(368.90625,133.671875)"/>
<path d="M0 0 C0.66 0 1.32 0 2 0 C6.61055134 20.38501629 8.47504314 40.21118567 0 60 C-0.66 60 -1.32 60 -2 60 C-1.566875 58.63875 -1.566875 58.63875 -1.125 57.25 C4.14464657 38.35455301 1.82675279 19.23677574 0 0 Z " fill="#51A5A1" transform="translate(188,71)"/>
<path d="M0 0 C0 0.33 0 0.66 0 1 C-6.75 1.125 -6.75 1.125 -9 0 C-15.52139452 -0.50765347 -21.43175924 -0.85493591 -27 3 C-27.53625 3.556875 -28.0725 4.11375 -28.625 4.6875 C-30 6 -30 6 -34 6 C-34.268125 6.5775 -34.53625 7.155 -34.8125 7.75 C-36.02929189 10.05550043 -37.30333879 12.02056192 -39 14 C-39.66 14 -40.32 14 -41 14 C-41.33 16.31 -41.66 18.62 -42 21 C-42.66 21 -43.32 21 -44 21 C-44.33 23.97 -44.66 26.94 -45 30 C-45.66 30 -46.32 30 -47 30 C-46.68269285 20.48078547 -43.18408414 12.01039727 -36.625 5 C-25.97334276 -4.68332476 -13.00164726 -4.73812742 0 0 Z " fill="#479793" transform="translate(70,132)"/>
<path d="M0 0 C0.98726527 2.66561622 1.0275526 3.90126985 0.25 6.6875 C-1 9 -1 9 -4 10 C-4 12.31 -4 14.62 -4 17 C-4.99 17.33 -5.98 17.66 -7 18 C-7.33 20.31 -7.66 22.62 -8 25 C-8.66 25 -9.32 25 -10 25 C-10.144375 26.051875 -10.28875 27.10375 -10.4375 28.1875 C-10.73794373 30.22384086 -11.05754001 32.26037202 -11.50170898 34.27026367 C-12.1235714 37.67694847 -12.32856702 41.03135482 -12.53515625 44.48828125 C-12.57813339 45.19147995 -12.62111053 45.89467865 -12.66539001 46.6191864 C-12.80099549 48.85010968 -12.93181824 51.08128343 -13.0625 53.3125 C-13.15398045 54.8313993 -13.245774 56.35027978 -13.33789062 57.86914062 C-13.56221813 61.57921612 -13.78225917 65.28953144 -14 69 C-14.33 69 -14.66 69 -15 69 C-15.61617861 42.94986444 -13.97711244 22.77267853 0 0 Z " fill="#356461" transform="translate(234,46)"/>
<path d="M0 0 C-0.33 0.99 -0.66 1.98 -1 3 C-2.32 3 -3.64 3 -5 3 C-5 3.66 -5 4.32 -5 5 C-8.08809695 6.76462683 -9.23312136 7 -13 7 C-13.0928125 7.92425781 -13.0928125 7.92425781 -13.1875 8.8671875 C-14 11 -14 11 -16.25 12.1953125 C-17.1575 12.50210938 -18.065 12.80890625 -19 13.125 C-22.76393192 14.15532298 -22.76393192 14.15532298 -25 17 C-25.66 17 -26.32 17 -27 17 C-27.33 18.32 -27.66 19.64 -28 21 C-28.99 21 -29.98 21 -31 21 C-31 21.66 -31 22.32 -31 23 C-32.93359375 24.65625 -32.93359375 24.65625 -35.4375 26.5 C-38.74856792 28.79910263 -38.74856792 28.79910263 -41 32 C-41.66 32 -42.32 32 -43 32 C-41.260553 22.186083 -28.25001534 15.40714698 -20.6484375 10.078125 C-5.80196886 0 -5.80196886 0 0 0 Z " fill="#449492" transform="translate(185,184)"/>
<path d="M0 0 C2 3 2 3 1.5390625 5.91796875 C1.23742187 6.99691406 0.93578125 8.07585937 0.625 9.1875 C0.18027344 10.81751953 0.18027344 10.81751953 -0.2734375 12.48046875 C-0.51320313 13.31191406 -0.75296875 14.14335937 -1 15 C-1.99 15 -2.98 15 -4 15 C-3.690625 16.8253125 -3.690625 16.8253125 -3.375 18.6875 C-2.88924757 22.50032385 -3.55767755 24.43661512 -5 28 C-5.23041039 31.34095067 -5.26592417 34.66048712 -5 38 C-4.67 38.33 -4.34 38.66 -4 39 C-3.76472227 41.34987262 -3.58613583 43.70556039 -3.4375 46.0625 C-3.35371094 47.35285156 -3.26992188 48.64320313 -3.18359375 49.97265625 C-3.12300781 50.97167969 -3.06242187 51.97070312 -3 53 C-7.86489198 48.13510802 -8.214906 39.1423635 -8.375 32.5625 C-8.05758153 20.98362623 -4.39313151 10.60949942 0 0 Z " fill="#407979" transform="translate(308,170)"/>
<path d="M0 0 C17.9537778 -0.85948936 31.55585804 2.85777804 47 12 C47 12.66 47 13.32 47 14 C47.721875 14.226875 48.44375 14.45375 49.1875 14.6875 C52.53209313 16.24831013 54.51603959 18.3031287 57 21 C54.83125748 20.49396008 53.00032373 20.00016187 51 19 C51 18.34 51 17.68 51 17 C49.35 17 47.7 17 46 17 C45.505 16.01 45.505 16.01 45 15 C43.51132724 14.07133836 41.98445294 13.20294664 40.4375 12.375 C39.61121094 11.92898437 38.78492188 11.48296875 37.93359375 11.0234375 C37.29550781 10.68570313 36.65742188 10.34796875 36 10 C36 9.34 36 8.68 36 8 C35.29230469 7.87496094 34.58460938 7.74992188 33.85546875 7.62109375 C30.89992079 6.97823175 28.16959679 6.05221327 25.3125 5.0625 C17.02837252 2.44395396 8.62484581 1.73567708 0 1 C0 0.67 0 0.34 0 0 Z " fill="#72BBB8" transform="translate(202,179)"/>
<path d="M0 0 C0.33 0.66 0.66 1.32 1 2 C1.66 2 2.32 2 3 2 C3.98219627 3.76915475 4.96065359 5.54038569 5.9375 7.3125 C6.48277344 8.29863281 7.02804688 9.28476562 7.58984375 10.30078125 C9 13 9 13 10 16 C12.72633694 17.10213621 15.04144033 18 18 18 C18 18.66 18 19.32 18 20 C18.99 20 19.98 20 21 20 C21.33 20.66 21.66 21.32 22 22 C23.95070702 22.61660818 23.95070702 22.61660818 26.25 23 C29.68964416 23.69122036 32.78713063 24.54902674 36 26 C36 26.33 36 26.66 36 27 C26.71413431 27.8928717 18.69278196 24.19017409 11.1875 18.875 C6.30322051 14.81962196 2.72378727 9.71907745 0 4 C0 2.68 0 1.36 0 0 Z " fill="#549B9A" transform="translate(82,347)"/>
<path d="M0 0 C0 0.66 0 1.32 0 2 C-0.99 2 -1.98 2 -3 2 C-3.66 3.32 -4.32 4.64 -5 6 C-5.99 6 -6.98 6 -8 6 C-8 7.32 -8 8.64 -8 10 C-8.99 10.33 -9.98 10.66 -11 11 C-11.73323796 13.01508358 -11.73323796 13.01508358 -12 15 C-13.32 15 -14.64 15 -16 15 C-16.33 17.31 -16.66 19.62 -17 22 C-17.66 22 -18.32 22 -19 22 C-19 23.32 -19 24.64 -19 26 C-19.66 26 -20.32 26 -21 26 C-21.57214262 20.53562334 -19.82497319 17.45349067 -16.6875 13.1875 C-16.28337891 12.60291016 -15.87925781 12.01832031 -15.46289062 11.41601562 C-12.41432371 7.1381079 -12.41432371 7.1381079 -9 6 C-9 5.34 -9 4.68 -9 4 C-3.70588235 0 -3.70588235 0 0 0 Z M-11 12 C-9 13 -9 13 -9 13 Z " fill="#569D9C" transform="translate(130,26)"/>
<path d="M0 0 C1.32 0.33 2.64 0.66 4 1 C4 1.66 4 2.32 4 3 C4.99 2.67 5.98 2.34 7 2 C9.71912087 4.71912087 9.6757467 7.19425496 10.2421875 10.90625 C10.80569658 13.14190254 10.80569658 13.14190254 12.828125 14.125 C13.54484375 14.41375 14.2615625 14.7025 15 15 C16.29964797 15.8208303 17.59127022 16.65449123 18.875 17.5 C22.15373529 19.58591182 25.27748061 20.84779162 29 22 C29.66 22.66 30.32 23.32 31 24 C22.90364317 23.64798449 16.10495192 19.13658023 10 14 C10 13.34 10 12.68 10 12 C9.34 12 8.68 12 8 12 C8 11.34 8 10.68 8 10 C7.34 10 6.68 10 6 10 C4.4921875 8.3203125 4.4921875 8.3203125 2.875 6.125 C2.33617188 5.40570313 1.79734375 4.68640625 1.2421875 3.9453125 C0 2 0 2 0 0 Z " fill="#2C9B97" transform="translate(117,129)"/>
<path d="M0 0 C0.66 0 1.32 0 2 0 C2 0.66 2 1.32 2 2 C2.58652344 2.22300781 3.17304688 2.44601563 3.77734375 2.67578125 C6.66955556 4.3989092 7.80142585 6.33117168 9.5625 9.1875 C10.14128906 10.10917969 10.72007812 11.03085937 11.31640625 11.98046875 C14.5781069 17.83034021 16.5140653 23.40345649 17.6875 29.9375 C17.81705078 30.62134766 17.94660156 31.30519531 18.08007812 32.00976562 C18.39389598 33.67183798 18.69799166 35.33574127 19 37 C17.515 37.495 17.515 37.495 16 38 C15.67 34.37 15.34 30.74 15 27 C14.34 27 13.68 27 13 27 C12.90203125 26.443125 12.8040625 25.88625 12.703125 25.3125 C11.62141499 19.7920489 10.10156833 14.7492765 7 10 C6.34 9.67 5.68 9.34 5 9 C4.690625 8.195625 4.38125 7.39125 4.0625 6.5625 C3.15452711 3.70136041 3.15452711 3.70136041 0 2 C0 1.34 0 0.68 0 0 Z " fill="#63ABAA" transform="translate(290,30)"/>
<path d="M0 0 C1.96301592 3.50538557 2.95902388 7.13351728 4 11 C4.66 11 5.32 11 6 11 C6.433125 12.134375 6.86625 13.26875 7.3125 14.4375 C8.1478125 16.2009375 8.1478125 16.2009375 9 18 C9.99 18.33 10.98 18.66 12 19 C12.6875 21.0625 12.6875 21.0625 13 23 C14.32 23 15.64 23 17 23 C17.33 24.65 17.66 26.3 18 28 C14.75728494 27.4409112 13.06942576 26.5867822 11 24 C11 23.34 11 22.68 11 22 C10.34 22 9.68 22 9 22 C7.15383206 19.68259694 5.47368394 17.38204391 3.8125 14.9375 C3.33619141 14.28072266 2.85988281 13.62394531 2.36914062 12.94726562 C0.03503304 9.51872843 -1.40122051 7.22185921 -0.80078125 3.00390625 C-0.53652344 2.01261719 -0.27226562 1.02132812 0 0 Z " fill="#4A9593" transform="translate(32,197)"/>
<path d="M0 0 C0.99 0.33 1.98 0.66 3 1 C-4.89111739 8.4713771 -11.96309564 13.13010908 -23.0625 13.1875 C-24.31160156 13.20167969 -25.56070313 13.21585938 -26.84765625 13.23046875 C-30 13 -30 13 -32 11 C-28.79029322 10.03558106 -25.96687824 9.92511197 -22.625 10 C-18.62432537 10.04284524 -14.92912906 9.84954142 -11 9 C-11 8.34 -11 7.68 -11 7 C-9.948125 6.938125 -9.948125 6.938125 -8.875 6.875 C-4.72075973 5.61066601 -2.91367285 3.18471218 0 0 Z " fill="#61B2AF" transform="translate(102,226)"/>
<path d="M0 0 C0.99 1.32 1.98 2.64 3 4 C2.57847656 4.44730469 2.15695312 4.89460937 1.72265625 5.35546875 C-1.52489572 8.93923787 -3.21501122 11.15923588 -4 16 C-5.9375 18.3125 -5.9375 18.3125 -8 20 C-8.66 20 -9.32 20 -10 20 C-9.58706588 14.10630388 -7.94914653 10.74648795 -4.4375 6.0625 C-4.01275391 5.47404297 -3.58800781 4.88558594 -3.15039062 4.27929688 C-2.1120372 2.84426911 -1.0576415 1.42087191 0 0 Z " fill="#3D9998" transform="translate(321,150)"/>
<path d="M0 0 C1.98 0 3.96 0 6 0 C2.75483452 2.16344365 -0.45629115 3.30313227 -4.125 4.5 C-5.13216064 4.83100708 -5.13216064 4.83100708 -6.15966797 5.16870117 C-19.34076911 9.4296278 -19.34076911 9.4296278 -26 9 C-25.67 8.01 -25.34 7.02 -25 6 C-22.36 6 -19.72 6 -17 6 C-17 5.34 -17 4.68 -17 4 C-11.23918159 2.7017874 -5.91260345 1.74293028 0 2 C0 1.34 0 0.68 0 0 Z " fill="#6BB7B5" transform="translate(157,365)"/>
<path d="M0 0 C2.97 0.495 2.97 0.495 6 1 C6 1.66 6 2.32 6 3 C-4.56762271 7.29869398 -14.43237729 7.29869398 -25 3 C-25 2.67 -25 2.34 -25 2 C-16.66360998 2.63195215 -8.33049713 3.29453448 0 4 C0 2.68 0 1.36 0 0 Z " fill="#61B2B1" transform="translate(266,148)"/>
<path d="M0 0 C2.9375 0.375 2.9375 0.375 6 1 C6.33 1.66 6.66 2.32 7 3 C9.12576782 3.46651207 9.12576782 3.46651207 11.5625 3.625 C12.38878906 3.69976562 13.21507812 3.77453125 14.06640625 3.8515625 C14.70449219 3.90054688 15.34257812 3.94953125 16 4 C16 4.66 16 5.32 16 6 C17.17755859 5.7834375 17.17755859 5.7834375 18.37890625 5.5625 C23.99610964 4.57001253 29.29497537 3.7406807 35 4 C31.21028911 7.78971089 25.36074296 7.99346959 20.17578125 8.0078125 C13.26798773 7.52609747 6.85990929 6.50242063 1.5 1.8125 C1.005 1.214375 0.51 0.61625 0 0 Z " fill="#6BB5B4" transform="translate(313,235)"/>
<path d="M0 0 C0.66 0.33 1.32 0.66 2 1 C-0.35162242 9.93616519 -5.8626672 17.27815932 -12 24 C-12 21 -12 21 -11 18 C-10.34 17.67 -9.68 17.34 -9 17 C-8.34444881 14.47266765 -8.34444881 14.47266765 -8 12 C-7.34 12 -6.68 12 -6 12 C-5.67 10.35 -5.34 8.7 -5 7 C-4.34 7 -3.68 7 -3 7 C-2.87625 6.21625 -2.7525 5.4325 -2.625 4.625 C-2 2 -2 2 0 0 Z " fill="#53A6A5" transform="translate(380,201)"/>
<path d="M0 0 C0.98726527 2.66561622 1.0275526 3.90126985 0.25 6.6875 C-1 9 -1 9 -4 10 C-4 12.31 -4 14.62 -4 17 C-4.99 17.33 -5.98 17.66 -7 18 C-7.33 20.31 -7.66 22.62 -8 25 C-8.66 25 -9.32 25 -10 25 C-9.73804685 17.01042907 -7.11884407 11.7622813 -3 5 C-2.44054687 4.06671875 -1.88109375 3.1334375 -1.3046875 2.171875 C-0.87414062 1.45515625 -0.44359375 0.7384375 0 0 Z " fill="#437D7C" transform="translate(234,46)"/>
<path d="M0 0 C-0.125 1.8125 -0.125 1.8125 -1 4 C-6.03571429 7 -6.03571429 7 -9 7 C-9 7.66 -9 8.32 -9 9 C-9.99 9 -10.98 9 -12 9 C-12.0825 9.61875 -12.165 10.2375 -12.25 10.875 C-13.23625439 13.66938743 -14.43390399 13.716952 -17 15 C-17.80528889 17.05000871 -17.80528889 17.05000871 -18 19 C-19.32 18.67 -20.64 18.34 -22 18 C-6.68008048 0 -6.68008048 0 0 0 Z " fill="#518B89" transform="translate(257,27)"/>
<path d="M0 0 C0.66 0 1.32 0 2 0 C2.2071352 10.89761308 2.15729044 21.27133239 0 32 C-0.66 32 -1.32 32 -2 32 C-2 28.04 -2 24.08 -2 20 C-1.34 20 -0.68 20 0 20 C0 13.4 0 6.8 0 0 Z " fill="#5BA3A1" transform="translate(307,69)"/>
<path d="M0 0 C0.66 0 1.32 0 2 0 C2.06058594 0.85464844 2.12117188 1.70929688 2.18359375 2.58984375 C2.26738281 3.69457031 2.35117187 4.79929688 2.4375 5.9375 C2.51871094 7.03964844 2.59992188 8.14179688 2.68359375 9.27734375 C2.70418084 11.91109903 2.70418084 11.91109903 4 13 C4.23527773 15.34987262 4.41386417 17.70556039 4.5625 20.0625 C4.64628906 21.35285156 4.73007812 22.64320313 4.81640625 23.97265625 C4.87699219 24.97167969 4.93757813 25.97070312 5 27 C0.67857184 22.67857184 0.11416975 15.1971851 -0.19140625 9.31640625 C-0.18799851 6.20514234 -0.13535379 3.1081241 0 0 Z " fill="#568481" transform="translate(300,196)"/>
<path d="M0 0 C0.33 0 0.66 0 1 0 C1.55253506 8.56429337 -0.1990045 15.10972847 -5.25 22.125 C-5.8275 22.74375 -6.405 23.3625 -7 24 C-7.66 23.67 -8.32 23.34 -9 23 C-6.25 16.125 -6.25 16.125 -4 15 C-3.39569708 12.68687878 -2.88951459 10.34763596 -2.4375 8 C-1.09386733 1.09386733 -1.09386733 1.09386733 0 0 Z " fill="#499D9A" transform="translate(332,331)"/>
<path d="M0 0 C0.66 0 1.32 0 2 0 C2.96142017 2.20703372 3.91919537 4.41553533 4.875 6.625 C5.14441406 7.24246094 5.41382813 7.85992187 5.69140625 8.49609375 C10.59396701 19.85568576 10.59396701 19.85568576 9 24 C9 23.34 9 22.68 9 22 C8.01 21.67 7.02 21.34 6 21 C5.0859375 19.14453125 5.0859375 19.14453125 4.375 16.8125 C4.12621094 15.9978125 3.87742187 15.183125 3.62109375 14.34375 C2.88970647 11.58379798 2.43866157 8.81996722 2 6 C1.36694179 3.98910922 0.70905938 1.98536627 0 0 Z " fill="#5CA8A5" transform="translate(321,290)"/>
<path d="M0 0 C4.12751449 0.60698743 7.3321148 2.03810791 11 4 C11 4.66 11 5.32 11 6 C11.721875 6.226875 12.44375 6.45375 13.1875 6.6875 C16.53209313 8.24831013 18.51603959 10.3031287 21 13 C18.83125748 12.49396008 17.00032373 12.00016187 15 11 C15 10.34 15 9.68 15 9 C13.35 9 11.7 9 10 9 C9.67 8.34 9.34 7.68 9 7 C7.51132724 6.07133836 5.98445294 5.20294664 4.4375 4.375 C3.61121094 3.92898437 2.78492188 3.48296875 1.93359375 3.0234375 C1.29550781 2.68570313 0.65742188 2.34796875 0 2 C0 1.34 0 0.68 0 0 Z " fill="#53A9A6" transform="translate(238,187)"/>
<path d="M0 0 C-5.28 -0.99 -10.56 -1.98 -16 -3 C-16 -3.33 -16 -3.66 -16 -4 C-19.63 -4.33 -23.26 -4.66 -27 -5 C-27 -5.33 -27 -5.66 -27 -6 C-16.34960179 -7.29095736 -8.03603953 -8.03603953 0 0 Z " fill="#55B0AE" transform="translate(290,30)"/>
<path d="M0 0 C0.66 0 1.32 0 2 0 C3.41829062 7.62331207 4.29682018 16.50799133 2 24 C1.34 24 0.68 24 0 24 C0 16.08 0 8.16 0 0 Z " fill="#50A39F" transform="translate(386,160)"/>
<path d="M0 0 C0 0.33 0 0.66 0 1 C-6.75 1.125 -6.75 1.125 -9 0 C-10.93550864 -0.09720427 -12.87455792 -0.12977914 -14.8125 -0.125 C-15.85019531 -0.12757813 -16.88789062 -0.13015625 -17.95703125 -0.1328125 C-20.75342942 -0.01076175 -23.27939879 0.36636645 -26 1 C-25.67 0.01 -25.34 -0.98 -25 -2 C-16.97492579 -5.09487167 -7.72781551 -2.81621043 0 0 Z " fill="#60B0AD" transform="translate(70,132)"/>
<path d="M0 0 C4.25047624 3.51698698 5.79587594 7.62646808 7.75 12.625 C8.22373047 13.78902344 8.22373047 13.78902344 8.70703125 14.9765625 C11 20.69409497 11 20.69409497 11 23 C10.01 22.67 9.02 22.34 8 22 C7.05078125 19.49609375 7.05078125 19.49609375 6.3125 16.4375 C5.93544922 14.91962891 5.93544922 14.91962891 5.55078125 13.37109375 C5.36902344 12.58863281 5.18726563 11.80617188 5 11 C4.34 11 3.68 11 3 11 C2.690625 10.195625 2.38125 9.39125 2.0625 8.5625 C1.23664655 6.10919595 1.23664655 6.10919595 0 5 C-0.04063832 3.33382885 -0.042721 1.66611905 0 0 Z " fill="#61ABA9" transform="translate(178,47)"/>
<path d="M0 0 C0.66 0.33 1.32 0.66 2 1 C1.38125 2.051875 0.7625 3.10375 0.125 4.1875 C-1.51579108 7.05015677 -2.86984453 9.89207246 -4 13 C-5.32 13 -6.64 13 -8 13 C-8 13.99 -8 14.98 -8 16 C-9.32 16.33 -10.64 16.66 -12 17 C-8.72243905 10.71800819 -4.51363632 5.44484769 0 0 Z " fill="#3F8685" transform="translate(125,231)"/>
<path d="M0 0 C5.52474667 4.34926865 9.74509961 9.17576388 14.08203125 14.70703125 C15.79348075 17.0630454 15.79348075 17.0630454 18 18 C18 18.66 18 19.32 18 20 C14.04169805 18.29383536 12.1636526 15.99251094 9.5625 12.65625 C7.85159762 10.84269348 6.27487067 9.9805477 4 9 C4 8.34 4 7.68 4 7 C3.34 7 2.68 7 2 7 C1.34 4.69 0.68 2.38 0 0 Z " fill="#61AFAF" transform="translate(264,205)"/>
<path d="M0 0 C0.66 0.99 1.32 1.98 2 3 C-3.14285714 8.57142857 -3.14285714 8.57142857 -7 9 C-7 10.32 -7 11.64 -7 13 C-8.98 13.99 -8.98 13.99 -11 15 C-10.582687 10.07215495 -8.45014073 8.0222855 -4.9375 4.6875 C-4.01839844 3.80449219 -3.09929687 2.92148438 -2.15234375 2.01171875 C-1.44207031 1.34785156 -0.73179687 0.68398437 0 0 Z " fill="#409393" transform="translate(140,215)"/>
<path d="M0 0 C-0.33 0.99 -0.66 1.98 -1 3 C-1.99 3 -2.98 3 -4 3 C-4.0825 3.61875 -4.165 4.2375 -4.25 4.875 C-5 7 -5 7 -6.9375 8.3125 C-7.618125 8.539375 -8.29875 8.76625 -9 9 C-9.66 8.67 -10.32 8.34 -11 8 C-11.33 9.32 -11.66 10.64 -12 12 C-12.99 12 -13.98 12 -15 12 C-15 12.66 -15 13.32 -15 14 C-15.66 13.67 -16.32 13.34 -17 13 C-15.625 11 -15.625 11 -14 9 C-13.34 9 -12.68 9 -12 9 C-12 8.34 -12 7.68 -12 7 C-9.8828125 5.2734375 -9.8828125 5.2734375 -7.125 3.375 C-6.22007812 2.74335938 -5.31515625 2.11171875 -4.3828125 1.4609375 C-2 0 -2 0 0 0 Z " fill="#4E9693" transform="translate(341,135)"/>
<path d="M0 0 C0.33 0 0.66 0 1 0 C2.27252229 8.27139492 2.89178514 16.78725024 1 25 C0.67 25 0.34 25 0 25 C-1.4454192 16.50816219 -1.08241617 8.52402737 0 0 Z " fill="#427270" transform="translate(80,319)"/>
<path d="M0 0 C0.33 0 0.66 0 1 0 C1.09744014 8.72630608 1.16711095 17.33003296 0 26 C-0.33 26 -0.66 26 -1 26 C-1.22328552 22.97961078 -1.42901467 19.95968289 -1.625 16.9375 C-1.68945312 16.08994141 -1.75390625 15.24238281 -1.8203125 14.36914062 C-2.14768288 9.06983265 -1.78150476 5.01133209 0 0 Z " fill="#3A8382" transform="translate(106,54)"/>
<path d="M0 0 C0.99 0.33 1.98 0.66 3 1 C3 2.65 3 4.3 3 6 C3.66 6 4.32 6 5 6 C5.350625 6.86625 5.70125 7.7325 6.0625 8.625 C8.41946575 12.73068227 11.29552831 15.13791503 15 18 C14.34 18.33 13.68 18.66 13 19 C11.66079162 17.88200014 10.32877444 16.75538103 9 15.625 C8.2575 14.99851563 7.515 14.37203125 6.75 13.7265625 C6.1725 13.15679687 5.595 12.58703125 5 12 C5 11.34 5 10.68 5 10 C4.34 10 3.68 10 3 10 C0.96564469 6.27034861 0 4.33094958 0 0 Z " fill="#709696" transform="translate(226,131)"/>
<path d="M0 0 C6.33888772 4.22592515 9.19363887 10.01395208 12 17 C12 17.99 12 18.98 12 20 C11.34 20 10.68 20 10 20 C9.73445313 19.28972656 9.46890625 18.57945312 9.1953125 17.84765625 C8.84210938 16.92855469 8.48890625 16.00945312 8.125 15.0625 C7.77695312 14.14597656 7.42890625 13.22945312 7.0703125 12.28515625 C6.2180914 9.85058944 6.2180914 9.85058944 4 9 C3.28752268 7.3523962 2.62599617 5.68236471 2 4 C1.34786461 2.65949948 0.68620031 1.32338632 0 0 Z " fill="#5EA6A4" transform="translate(375,139)"/>
<path d="M0 0 C0.66 0 1.32 0 2 0 C2 0.66 2 1.32 2 2 C2.58394531 2.22042969 3.16789062 2.44085938 3.76953125 2.66796875 C6.69932758 4.41763696 7.88796645 6.42778135 9.6875 9.3125 C10.28949219 10.25738281 10.89148438 11.20226563 11.51171875 12.17578125 C12.92972658 14.86664651 13.59101783 17.00625054 14 20 C9.78194514 17.52734715 8.79739405 14.4117854 7 10 C6.34 9.67 5.68 9.34 5 9 C4.690625 8.195625 4.38125 7.39125 4.0625 6.5625 C3.15452711 3.70136041 3.15452711 3.70136041 0 2 C0 1.34 0 0.68 0 0 Z " fill="#72B1AF" transform="translate(290,30)"/>
<path d="M0 0 C0.99 0 1.98 0 3 0 C3 5.94 3 11.88 3 18 C2.67 18 2.34 18 2 18 C0.3722167 11.85221129 -0.20190089 6.35987804 0 0 Z " fill="#4A8987" transform="translate(23,171)"/>
<path d="M0 0 C9.21700571 -0.56144197 16.42711507 -0.01521603 23.5625 6.25 C24.036875 6.8275 24.51125 7.405 25 8 C21.00688951 7.02209539 18.25911355 6.16443744 14.75 3.9375 C10.21003391 1.14287557 5.20829757 1.18836519 0 1 C0 0.67 0 0.34 0 0 Z " fill="#7CBEBC" transform="translate(350,131)"/>
<path d="M0 0 C0.33 0 0.66 0 1 0 C1 2.64 1 5.28 1 8 C0.34 8 -0.32 8 -1 8 C-1.103125 8.94875 -1.20625 9.8975 -1.3125 10.875 C-2 14 -2 14 -5 16 C-4.55643705 9.79011871 -3.08467498 5.39459439 0 0 Z " fill="#4A9E9B" transform="translate(98,270)"/>
<path d="M0 0 C0.99 0 1.98 0 3 0 C3 0.66 3 1.32 3 2 C2.34 2 1.68 2 1 2 C0.67 4.31 0.34 6.62 0 9 C-0.66 9 -1.32 9 -2 9 C-2.33 11.97 -2.66 14.94 -3 18 C-3.66 18 -4.32 18 -5 18 C-4.56699236 11.18012971 -3.09212176 6.08356979 0 0 Z " fill="#497F7D" transform="translate(28,144)"/>
<path d="M0 0 C0.33 0 0.66 0 1 0 C0.62257767 6.16456476 -1.15870308 9.17375515 -5 14 C-5.66 13.01 -6.32 12.02 -7 11 C-5.85845641 9.16399255 -4.71165684 7.33125195 -3.5625 5.5 C-2.92441406 4.4790625 -2.28632812 3.458125 -1.62890625 2.40625 C-0.82259766 1.21515625 -0.82259766 1.21515625 0 0 Z " fill="#418A89" transform="translate(112,248)"/>
<path d="M0 0 C-0.33 0.99 -0.66 1.98 -1 3 C-2.32 3 -3.64 3 -5 3 C-5 3.66 -5 4.32 -5 5 C-8.08809695 6.76462683 -9.23312136 7 -13 7 C-13 7.66 -13 8.32 -13 9 C-13.66 9 -14.32 9 -15 9 C-13.95285594 6.08295585 -13.18809437 5.11030225 -10.46875 3.515625 C-9.4890625 3.09796875 -8.509375 2.6803125 -7.5 2.25 C-6.03046875 1.60804688 -6.03046875 1.60804688 -4.53125 0.953125 C-2 0 -2 0 0 0 Z " fill="#59A19F" transform="translate(185,184)"/>
<path d="M0 0 C0.66 0 1.32 0 2 0 C2 0.66 2 1.32 2 2 C2.58007812 2.2784375 3.16015625 2.556875 3.7578125 2.84375 C5.9007789 3.94883372 7.86285929 5.17473463 9.875 6.5 C13.15373529 8.58591182 16.27748061 9.84779162 20 11 C20.66 11.66 21.32 12.32 22 13 C14.1161026 12.65722185 7.47731577 8.64657475 1.875 3.1875 C0 1 0 1 0 0 Z " fill="#7CB0B0" transform="translate(126,140)"/>
<path d="M0 0 C0.66 0 1.32 0 2 0 C0.65846062 5.00028314 -1.48370003 9.19067503 -5 13 C-5.66 13 -6.32 13 -7 13 C-6.75 9.625 -6.75 9.625 -6 6 C-4.0625 4.8125 -4.0625 4.8125 -2 4 C-0.73195434 1.9664052 -0.73195434 1.9664052 0 0 Z " fill="#51A8A6" transform="translate(298,119)"/>
<path d="M0 0 C2 3 2 3 1.5390625 5.91796875 C1.23742187 6.99691406 0.93578125 8.07585937 0.625 9.1875 C0.32851563 10.27417969 0.03203125 11.36085937 -0.2734375 12.48046875 C-0.51320313 13.31191406 -0.75296875 14.14335937 -1 15 C-1.66 15 -2.32 15 -3 15 C-3.3152595 9.01006953 -2.68219822 5.36439644 0 0 Z " fill="#43918E" transform="translate(308,170)"/>
<path d="M0 0 C-3.10965283 1.63201638 -6.26690587 2.91437359 -9.5625 4.125 C-10.51253906 4.47820312 -11.46257812 4.83140625 -12.44140625 5.1953125 C-15 6 -15 6 -18 6 C-18 5.01 -18 4.02 -18 3 C-11.88595404 1.14256832 -6.41481258 -0.42765417 0 0 Z " fill="#62B3AE" transform="translate(188,356)"/>
<path d="M0 0 C10.625 2.70833333 10.625 2.70833333 13.3125 7.1875 C13.539375 7.785625 13.76625 8.38375 14 9 C10.56043049 8.36245966 8.19831086 7.01340354 5.3125 5.0625 C4.52488281 4.53785156 3.73726562 4.01320312 2.92578125 3.47265625 C1 2 1 2 0 0 Z " fill="#5CA4A2" transform="translate(50,226)"/>
<path d="M0 0 C0.99 1.32 1.98 2.64 3 4 C1.02 6.31 -0.96 8.62 -3 11 C-3.99 10.67 -4.98 10.34 -6 10 C-4.07119658 6.59244728 -2.1723491 3.25852365 0 0 Z " fill="#368280" transform="translate(321,150)"/>
<path d="M0 0 C6.41923331 0.29112169 10.62100206 1.45215029 16 5 C12.67465243 6.10844919 10.37817425 5.84454356 7 5 C7 4.34 7 3.68 7 3 C6.401875 2.87625 5.80375 2.7525 5.1875 2.625 C3 2 3 2 0 0 Z " fill="#66B6B4" transform="translate(146,24)"/>
<path d="M0 0 C2.9375 0.375 2.9375 0.375 6 1 C6.33 1.66 6.66 2.32 7 3 C9.12576782 3.46651207 9.12576782 3.46651207 11.5625 3.625 C12.38878906 3.69976562 13.21507812 3.77453125 14.06640625 3.8515625 C14.70449219 3.90054688 15.34257812 3.94953125 16 4 C16 4.99 16 5.98 16 7 C9.49955416 6.65176183 5.14856037 5.05312199 0 1 C0 0.67 0 0.34 0 0 Z " fill="#58A2A0" transform="translate(313,235)"/>
<path d="M0 0 C4.29 0 8.58 0 13 0 C10.70423322 2.29576678 9.09653751 3.0638375 6 4 C3.1875 3.625 3.1875 3.625 1 3 C0.67 2.01 0.34 1.02 0 0 Z " fill="#35A19D" transform="translate(133,24)"/>
<path d="M0 0 C0.66 0.33 1.32 0.66 2 1 C0.58994275 2.15395711 -0.82833458 3.29787466 -2.25 4.4375 C-3.43335938 5.39462891 -3.43335938 5.39462891 -4.640625 6.37109375 C-6.86247492 7.90505305 -8.36743482 8.57130246 -11 9 C-11 6 -11 6 -9.9375 4.4375 C-7.19565591 2.40322858 -4.2763984 1.84943662 -1 1 C-0.67 0.67 -0.34 0.34 0 0 Z " fill="#60B2AF" transform="translate(322,356)"/>
<path d="M0 0 C7.15406617 -0.74521523 11.30223306 0.65292985 17 5 C13.27731425 6.24089525 12.10692484 5.55948888 8.5 4.1875 C7.5409375 3.83042969 6.581875 3.47335937 5.59375 3.10546875 C3 2 3 2 0 0 Z " fill="#71B5B3" transform="translate(241,351)"/>
<path d="M0 0 C0.33 0.66 0.66 1.32 1 2 C1.66 2 2.32 2 3 2 C4.65 5.3 6.3 8.6 8 12 C7.01 12 6.02 12 5 12 C3.61328125 10.390625 3.61328125 10.390625 2.3125 8.25 C1.87550781 7.55390625 1.43851562 6.8578125 0.98828125 6.140625 C0 4 0 4 0 0 Z " fill="#498482" transform="translate(82,347)"/>
<path d="M0 0 C3.83663072 1.34929464 6.65172569 3.07751025 9.8125 5.625 C10.99779297 6.57246094 10.99779297 6.57246094 12.20703125 7.5390625 C12.79871094 8.02117187 13.39039062 8.50328125 14 9 C13.01 9.33 12.02 9.66 11 10 C10.566875 9.525625 10.13375 9.05125 9.6875 8.5625 C7.97690387 6.76313043 7.97690387 6.76313043 5 6 C5 5.34 5 4.68 5 4 C3.35 4 1.7 4 0 4 C0 2.68 0 1.36 0 0 Z " fill="#65B0AE" transform="translate(74,135)"/>
<path d="M0 0 C2.31 0 4.62 0 7 0 C-3.56547619 5.49404762 -3.56547619 5.49404762 -9 5 C-8.67 4.01 -8.34 3.02 -8 2 C-5.36 2 -2.72 2 0 2 C0 1.34 0 0.68 0 0 Z " fill="#49ACA8" transform="translate(140,369)"/>
<path d="M0 0 C5.28663545 2.15381444 8.77870367 6.42236838 12 11 C2.9 6.8 2.9 6.8 0.625 2.25 C0.41875 1.5075 0.2125 0.765 0 0 Z " fill="#61ADAB" transform="translate(162,30)"/>
<path d="M0 0 C-3.32307692 3.93846154 -3.32307692 3.93846154 -6.75 4.25 C-7.4925 4.1675 -8.235 4.085 -9 4 C-8.625 2.0625 -8.625 2.0625 -8 0 C-5.13822943 -1.43088528 -3.06624227 -0.59991697 0 0 Z " fill="#37A69E" transform="translate(355,235)"/>
<path d="M0 0 C1.41554787 2.61331914 2.58131312 5.30718129 3.6875 8.0625 C3.95949219 8.73410156 4.23148438 9.40570313 4.51171875 10.09765625 C5 12 5 12 4 15 C-0.92466368 8.43946188 -0.92466368 8.43946188 -1.109375 4.91015625 C-0.8125 3 -0.8125 3 0 0 Z " fill="#418482" transform="translate(32,197)"/>
<path d="M0 0 C0.33 0 0.66 0 1 0 C1 2.31 1 4.62 1 7 C0.34 7 -0.32 7 -1 7 C-1.66 8.65 -2.32 10.3 -3 12 C-3.66 11.01 -4.32 10.02 -5 9 C-3.35 6.03 -1.7 3.06 0 0 Z " fill="#438B89" transform="translate(104,260)"/>
<path d="M0 0 C0.66 0.99 1.32 1.98 2 3 C1.401875 3.2475 0.80375 3.495 0.1875 3.75 C-2.28777159 5.16444091 -3.33430804 6.72860188 -5 9 C-5.66 9 -6.32 9 -7 9 C-6.37312706 6.07459296 -5.64872507 3.5164751 -4 1 C-1.875 0.25 -1.875 0.25 0 0 Z " fill="#2F9F9F" transform="translate(189,182)"/>
<path d="M0 0 C0.66 0.99 1.32 1.98 2 3 C1.01 3.33 0.02 3.66 -1 4 C-1.33 6.31 -1.66 8.62 -2 11 C-2.66 11 -3.32 11 -4 11 C-3.67 8.03 -3.34 5.06 -3 2 C-2.01 2 -1.02 2 0 2 C0 1.34 0 0.68 0 0 Z " fill="#419794" transform="translate(228,60)"/>
<path d="M0 0 C1.32 0 2.64 0 4 0 C4 0.66 4 1.32 4 2 C4.886875 1.896875 5.77375 1.79375 6.6875 1.6875 C11.00684858 2.09498572 12.25642975 3.7722703 15 7 C11.14974121 6.39644592 8.13898841 5.23227397 4.6875 3.4375 C3.80449219 2.98246094 2.92148437 2.52742188 2.01171875 2.05859375 C1.34785156 1.70925781 0.68398438 1.35992187 0 1 C0 0.67 0 0.34 0 0 Z " fill="#5EA5A3" transform="translate(259,357)"/>
<path d="M0 0 C1.32 0.66 2.64 1.32 4 2 C3.01 2.495 3.01 2.495 2 3 C2 3.66 2 4.32 2 5 C0.25 6.5078125 0.25 6.5078125 -2 8.125 C-2.7425 8.66382813 -3.485 9.20265625 -4.25 9.7578125 C-4.8275 10.16773438 -5.405 10.57765625 -6 11 C-6.66 10.67 -7.32 10.34 -8 10 C-7.67 9.01 -7.34 8.02 -7 7 C-6.195625 6.690625 -5.39125 6.38125 -4.5625 6.0625 C-1.87184039 5.23399929 -1.87184039 5.23399929 -0.6875 2.9375 C0.05573497 1.18557213 0.05573497 1.18557213 0 0 Z " fill="#5CA9A7" transform="translate(363,224)"/>
<path d="M0 0 C0.66 0 1.32 0 2 0 C0.9318153 5.11365014 -0.23107476 10.07227969 -2 15 C-2.33 15 -2.66 15 -3 15 C-2.88529863 13.24929483 -2.75780972 11.49942464 -2.625 9.75 C-2.55539062 8.77546875 -2.48578125 7.8009375 -2.4140625 6.796875 C-2.01534751 4.10366811 -1.36492937 2.33036721 0 0 Z " fill="#64A6A6" transform="translate(385,186)"/>
<path d="M0 0 C10.55808656 0.77904328 10.55808656 0.77904328 15 3 C15 3.33 15 3.66 15 4 C9.01006953 4.3152595 5.36439644 3.68219822 0 1 C0 0.67 0 0.34 0 0 Z " fill="#61B1B1" transform="translate(103,370)"/>
<path d="M0 0 C0.33 0 0.66 0 1 0 C1.08121924 1.60332791 1.13929134 3.20784026 1.1875 4.8125 C1.22230469 5.70582031 1.25710937 6.59914063 1.29296875 7.51953125 C0.95081002 10.41647515 0.24606427 11.22555028 -2 13 C-3.18771723 9.57056481 -2.80226223 7.62215325 -1.5625 4.25 C-1.27503906 3.45078125 -0.98757812 2.6515625 -0.69140625 1.828125 C-0.46324219 1.22484375 -0.23507813 0.6215625 0 0 Z " fill="#3C807E" transform="translate(88,292)"/>
<path d="M0 0 C0.33 0 0.66 0 1 0 C1.20674944 5.78898419 0.59162079 10.42932723 -1 16 C-1.66 16 -2.32 16 -3 16 C-2.52013969 10.43109483 -1.70084819 5.32932432 0 0 Z " fill="#406B6A" transform="translate(223,67)"/>
<path d="M0 0 C-0.125 1.8125 -0.125 1.8125 -1 4 C-6.03571429 7 -6.03571429 7 -9 7 C-7.4576387 2.93377477 -4.5679954 0 0 0 Z " fill="#4D9E9B" transform="translate(257,27)"/>
<path d="M0 0 C0.66 0 1.32 0 2 0 C2.144375 1.11375 2.28875 2.2275 2.4375 3.375 C2.78372035 6.82142047 2.78372035 6.82142047 4 9 C3.0625 11.125 3.0625 11.125 2 13 C1.46605821 11.5882217 0.94834896 10.17029756 0.4375 8.75 C0.14746094 7.96109375 -0.14257812 7.1721875 -0.44140625 6.359375 C-1.04522837 3.80896548 -0.8473932 2.44677771 0 0 Z " fill="#42837F" transform="translate(27,187)"/>
<path d="M0 0 C-1.25805377 4.50802601 -2.90407165 7.4912812 -6 11 C-6.66 10.67 -7.32 10.34 -8 10 C-4.03773585 0 -4.03773585 0 0 0 Z " fill="#59A6A3" transform="translate(331,344)"/>
<path d="M0 0 C2.48982535 2.27745789 4.10368997 4.62335238 5.75 7.5625 C6.19859375 8.34753906 6.6471875 9.13257813 7.109375 9.94140625 C7.40328125 10.62074219 7.6971875 11.30007813 8 12 C7.67 12.66 7.34 13.32 7 14 C2.66768274 9.43966604 1.17200539 6.1796648 0 0 Z " fill="#76B2B1" transform="translate(314,274)"/>
<path d="M0 0 C0.99 0 1.98 0 3 0 C2.67 1.65 2.34 3.3 2 5 C1.34 5 0.68 5 0 5 C0 6.32 0 7.64 0 9 C-0.66 9 -1.32 9 -2 9 C-2.25 3.375 -2.25 3.375 0 0 Z " fill="#57A6A5" transform="translate(111,43)"/>
<path d="M0 0 C1.98362069 2.91708924 1.9876191 4.12380904 1.625 7.75 C1.41875 8.8225 1.2125 9.895 1 11 C0.34 11 -0.32 11 -1 11 C-1.02688151 9.35425434 -1.04634123 7.70838587 -1.0625 6.0625 C-1.07410156 5.14597656 -1.08570313 4.22945312 -1.09765625 3.28515625 C-1 1 -1 1 0 0 Z " fill="#6DB0AC" transform="translate(387,173)"/>
<path d="M0 0 C1.8125 0.125 1.8125 0.125 4 1 C5.8125 3.875 5.8125 3.875 7 7 C6.67 7.99 6.34 8.98 6 10 C4.99421411 8.71283353 3.99553202 7.42011342 3 6.125 C2.443125 5.40570313 1.88625 4.68640625 1.3125 3.9453125 C0 2 0 2 0 0 Z " fill="#518988" transform="translate(117,129)"/>
<path d="M0 0 C0.66 0 1.32 0 2 0 C2.6708712 1.6232687 3.33657029 3.24867578 4 4.875 C4.556875 6.23238281 4.556875 6.23238281 5.125 7.6171875 C6 10 6 10 6 12 C5.01 11.67 4.02 11.34 3 11 C2.05078125 8.49609375 2.05078125 8.49609375 1.3125 5.4375 C1.06113281 4.42558594 0.80976563 3.41367187 0.55078125 2.37109375 C0.36902344 1.58863281 0.18726563 0.80617187 0 0 Z " fill="#5BA5A3" transform="translate(183,58)"/>
<path d="M0 0 C0.99 0 1.98 0 3 0 C2.67 2.97 2.34 5.94 2 9 C1.34 9 0.68 9 0 9 C-0.33 9.99 -0.66 10.98 -1 12 C-0.67 8.04 -0.34 4.08 0 0 Z " fill="#208B8B" transform="translate(221,107)"/>
<path d="M0 0 C0.99 0.99 1.98 1.98 3 3 C2.67 3.66 2.34 4.32 2 5 C0.68 5 -0.64 5 -2 5 C-2 5.66 -2 6.32 -2 7 C-2.66 7 -3.32 7 -4 7 C-2.92598892 4.08482708 -2.22189824 2.22189824 0 0 Z M3 2 C5 3 5 3 5 3 Z " fill="#358685" transform="translate(116,36)"/>
<path d="M0 0 C2.54131358 2.30283254 4.07110295 4.67313793 5.6875 7.6875 C6.12449219 8.49574219 6.56148438 9.30398438 7.01171875 10.13671875 C7.33785156 10.75160156 7.66398437 11.36648438 8 12 C7.01 11.67 6.02 11.34 5 11 C5 10.34 5 9.68 5 9 C4.01 8.67 3.02 8.34 2 8 C1.26953125 6.15234375 1.26953125 6.15234375 0.8125 3.9375 C0.65394531 3.20402344 0.49539063 2.47054688 0.33203125 1.71484375 C0.22246094 1.14894531 0.11289062 0.58304687 0 0 Z " fill="#69ACA8" transform="translate(306,260)"/>
<path d="M0 0 C0.99 0.33 1.98 0.66 3 1 C1.35 4.3 -0.3 7.6 -2 11 C-2.66 10.67 -3.32 10.34 -4 10 C-2.68 6.7 -1.36 3.4 0 0 Z " fill="#65ABAB" transform="translate(108,213)"/>
<path d="M0 0 C3.5625 0.1875 3.5625 0.1875 5.5625 2.1875 C4.5625 3.1875 4.5625 3.1875 1.125 3.375 C-2.4375 3.1875 -2.4375 3.1875 -4.4375 1.1875 C-3.4375 0.1875 -3.4375 0.1875 0 0 Z " fill="#51ABA9" transform="translate(197.4375,179.8125)"/>
<path d="M0 0 C-2.55068845 2.35448165 -3.71017358 2.98327924 -7.25 3.1875 C-8.1575 3.125625 -9.065 3.06375 -10 3 C-9.67 2.01 -9.34 1.02 -9 0 C-5.52176885 -1.15941038 -3.54104422 -0.70820884 0 0 Z " fill="#4FACAD" transform="translate(352,133)"/>
<path d="M0 0 C0.33 0.66 0.66 1.32 1 2 C1.66 2.33 2.32 2.66 3 3 C0.625 4.5625 0.625 4.5625 -2 6 C-2.66 5.67 -3.32 5.34 -4 5 C-2.25 1.125 -2.25 1.125 0 0 Z " fill="#3C9392" transform="translate(169,191)"/>
<path d="M0 0 C0.53625 0.28875 1.0725 0.5775 1.625 0.875 C4.08024809 2.11346577 4.08024809 2.11346577 7.1875 2.9375 C8.5796875 3.4634375 8.5796875 3.4634375 10 4 C10.33 4.99 10.66 5.98 11 7 C5.95904225 6.55520961 3.58884285 4.33845847 0 1 C0 0.67 0 0.34 0 0 Z " fill="#289F99" transform="translate(234,143)"/>
<path d="M0 0 C0.99 0.33 1.98 0.66 3 1 C3 2.65 3 4.3 3 6 C3.66 6 4.32 6 5 6 C4.67 6.99 4.34 7.98 4 9 C1.47740939 7.02579865 1.0070192 6.03254358 0.3125 2.8125 C0.209375 1.884375 0.10625 0.95625 0 0 Z " fill="#59A4A1" transform="translate(226,131)"/>
<path d="M0 0 C0.66 0 1.32 0 2 0 C2.433125 1.134375 2.86625 2.26875 3.3125 3.4375 C4.1478125 5.2009375 4.1478125 5.2009375 5 7 C5.99 7.33 6.98 7.66 8 8 C7.67 8.99 7.34 9.98 7 11 C6.34 11 5.68 11 5 11 C2.25221116 7.41954788 0.53031138 4.5076467 0 0 Z " fill="#6BA9A6" transform="translate(36,208)"/>
<path d="M0 0 C2.97 0.495 2.97 0.495 6 1 C6 1.66 6 2.32 6 3 C3.64561267 4.42944945 2.51967567 5.08661261 -0.25 4.625 C-0.8275 4.41875 -1.405 4.2125 -2 4 C-1.34 4 -0.68 4 0 4 C0 2.68 0 1.36 0 0 Z " fill="#4AADAA" transform="translate(266,148)"/>
<path d="M0 0 C2.95183101 2.95183101 3.08663988 5.95511947 4 10 C3.34 10 2.68 10 2 10 C2 9.34 2 8.68 2 8 C1.34 8 0.68 8 0 8 C0 5.36 0 2.72 0 0 Z " fill="#51A4A2" transform="translate(81,339)"/>
<path d="M0 0 C0.66 0.33 1.32 0.66 2 1 C1.21718695 2.33855056 0.42348123 3.67073644 -0.375 5 C-0.81585938 5.7425 -1.25671875 6.485 -1.7109375 7.25 C-2.34902344 8.11625 -2.34902344 8.11625 -3 9 C-3.66 9 -4.32 9 -5 9 C-4.42647107 5.12867972 -2.51295648 2.91827204 0 0 Z " fill="#5B9593" transform="translate(125,231)"/>
<path d="M0 0 C4.29 0 8.58 0 13 0 C13 0.33 13 0.66 13 1 C11.40119187 1.41694996 9.79558739 1.80790856 8.1875 2.1875 C7.29417969 2.40792969 6.40085938 2.62835938 5.48046875 2.85546875 C4.25263672 2.92701172 4.25263672 2.92701172 3 3 C2.01 2.01 1.02 1.02 0 0 Z " fill="#299795" transform="translate(146,151)"/>
<path d="M0 0 C2 1.1875 2 1.1875 4 3 C4.25 5.6875 4.25 5.6875 4 8 C3.01 8 2.02 8 1 8 C0.67 5.36 0.34 2.72 0 0 Z " fill="#55A8A2" transform="translate(302,49)"/>
<path d="M0 0 C3.83206182 0.41427695 6.08025204 1.51280729 9 4 C2.375 3.25 2.375 3.25 -1 1 C-0.67 0.67 -0.34 0.34 0 0 Z " fill="#66B3B4" transform="translate(231,183)"/>
<path d="M0 0 C0.66 0 1.32 0 2 0 C2.79953138 3.28696233 3.09658936 4.71023192 2 8 C1.34 8 0.68 8 0 8 C0 5.36 0 2.72 0 0 Z " fill="#469F9B" transform="translate(301,106)"/>
<path d="M0 0 C0.66 0 1.32 0 2 0 C2.33 1.65 2.66 3.3 3 5 C2.01 5.33 1.02 5.66 0 6 C-0.33 6.66 -0.66 7.32 -1 8 C-0.67 5.36 -0.34 2.72 0 0 Z " fill="#579E9E" transform="translate(90,287)"/>
<path d="M0 0 C0.33 0 0.66 0 1 0 C1 2.64 1 5.28 1 8 C-0.32 7.67 -1.64 7.34 -3 7 C-2.01 4.69 -1.02 2.38 0 0 Z " fill="#4D8987" transform="translate(98,270)"/>
<path d="M0 0 C2.09350689 3.4019487 2.17942163 6.05272412 2 10 C1.34 10 0.68 10 0 10 C-1.125 3.375 -1.125 3.375 0 0 Z " fill="#2D867F" transform="translate(108,48)"/>
<path d="M0 0 C0.33 0 0.66 0 1 0 C1 1.65 1 3.3 1 5 C-0.98 5.99 -0.98 5.99 -3 7 C-2.25 2.25 -2.25 2.25 0 0 Z " fill="#3F8987" transform="translate(132,223)"/>
<path d="M0 0 C0.99 0.33 1.98 0.66 3 1 C2.67 1.66 2.34 2.32 2 3 C0.66666667 3.33333333 -0.66666667 3.66666667 -2 4 C-2.33 4.66 -2.66 5.32 -3 6 C-3.66 6 -4.32 6 -5 6 C-3.63016497 2.83884224 -3.0109362 2.0072908 0 0 Z " fill="#64A2A0" transform="translate(163,195)"/>
<path d="M0 0 C0.99 1.32 1.98 2.64 3 4 C1.02 4.99 1.02 4.99 -1 6 C-1.33 5.01 -1.66 4.02 -2 3 C-1.34 2.01 -0.68 1.02 0 0 Z " fill="#409390" transform="translate(321,150)"/>
<path d="M0 0 C2.31 0.33 4.62 0.66 7 1 C7 1.66 7 2.32 7 3 C7.66 3.33 8.32 3.66 9 4 C3.46153846 3.38461538 3.46153846 3.38461538 1.125 1.4375 C0.75375 0.963125 0.3825 0.48875 0 0 Z " fill="#259D9D" transform="translate(135,146)"/>
<path d="M0 0 C0.66 0.33 1.32 0.66 2 1 C1.34 2.32 0.68 3.64 0 5 C-0.99 5 -1.98 5 -3 5 C-3 5.66 -3 6.32 -3 7 C-3.66 6.67 -4.32 6.34 -5 6 C-3.625 4 -3.625 4 -2 2 C-1.34 2 -0.68 2 0 2 C0 1.34 0 0.68 0 0 Z " fill="#77B2B2" transform="translate(329,142)"/>
<path d="M0 0 C0 0.99 0 1.98 0 3 C-2.5 5.1875 -2.5 5.1875 -5 7 C-5.33 6.01 -5.66 5.02 -6 4 C-4.02 2.68 -2.04 1.36 0 0 Z " fill="#53A6A3" transform="translate(35,138)"/>
<path d="M0 0 C0.99 0.33 1.98 0.66 3 1 C3.33 2.98 3.66 4.96 4 7 C3.01 6.67 2.02 6.34 1 6 C0.67 4.02 0.34 2.04 0 0 Z " fill="#568C88" transform="translate(221,120)"/>
</svg>
